<svg width="16" height="16" viewBox="0 0 16 16" fill="none" xmlns="http://www.w3.org/2000/svg">
<path d="M0 8C0 3.58172 3.58172 0 8 0V0C12.4183 0 16 3.58172 16 8V8C16 12.4183 12.4183 16 8 16V16C3.58172 16 0 12.4183 0 8V8Z" fill="#3BD86D"/>
<path fill-rule="evenodd" clip-rule="evenodd" d="M8.5 0.529938V6H15.6227L10.3246 11.8867L5.38898 14.9715L5.9564 9.86469L2.15491 8.77855L8.5 0.529938ZM3.84509 8.22144L7.0436 9.1353L6.61103 13.0285L9.67539 11.1133L13.3773 7H7.5V3.47006L3.84509 8.22144Z" fill="black"/>
</svg>